<svg width="964" height="964" viewBox="0 0 964 964" fill="none" xmlns="http://www.w3.org/2000/svg">
<path d="M483.121 20.9583C470.636 20.6229 461.534 43.3051 445.344 77.803C342.808 296.285 391.379 474.223 477.724 474.223L488.517 474.224C574.862 474.224 623.433 296.285 520.897 77.8032C504.707 43.3053 495.606 20.6229 483.121 20.9583Z" fill="#E1F7FF" stroke="#023430" stroke-width="31.1818" stroke-linecap="round"/>
<path d="M706.266 250.403C694.776 245.509 676.503 278.06 648.781 304.208C473.212 469.808 478.434 581.844 558.753 613.535C639.072 645.227 735.733 558.013 720.543 317.146C718.145 279.113 718.003 254.673 706.266 250.403Z" fill="#C0FAE6" stroke="#023430" stroke-width="31.1818" stroke-linecap="round"/>
<path d="M839.464 528.609C831.254 519.198 800.624 540.536 764.279 551.993C534.099 624.554 489.986 727.671 548.473 791.191C606.959 854.711 731.962 818.326 823.235 594.904C837.647 559.627 848.168 537.567 839.464 528.609Z" fill="#71F6BA" stroke="#023430" stroke-width="31.1818" stroke-linecap="round"/>
<path d="M257.734 250.403C269.225 245.509 287.498 278.06 315.22 304.208C490.788 469.808 485.567 581.844 405.248 613.535C351.405 634.78 290.219 602.591 260.306 506.5C248.768 469.435 241.883 422.863 241.868 366.182C241.863 350.604 242.378 334.263 243.457 317.146C245.856 279.113 245.997 254.673 257.734 250.403Z" fill="#C0FAE6" stroke="#023430" stroke-width="31.1818" stroke-linecap="round"/>
<path d="M124.536 528.609C132.746 519.198 163.376 540.536 199.721 551.993C429.901 624.554 474.014 727.671 415.527 791.191C357.04 854.711 232.038 818.326 140.765 594.904C126.353 559.627 115.832 537.567 124.536 528.609Z" fill="#71F6BA" stroke="#023430" stroke-width="31.1818" stroke-linecap="round"/>
<path d="M485.341 476V680.86V727.52M485.341 727.52C474.135 676.395 456.749 634.982 437.217 599.317M485.341 727.52C498.473 667.607 512.362 629.099 526.952 599.519M485.341 727.52V823.062V856.391M485.341 856.391C471.061 820.381 453.971 794.676 434.778 774.467M485.341 856.391V943.045M485.341 856.391C498.701 822.701 514.521 798.031 532.221 778.443" stroke="#023430" stroke-width="31.1818" stroke-linecap="round"/>
</svg>
