<svg width="359" height="445" fill="none" xmlns="http://www.w3.org/2000/svg"><path d="M303 356c0 18.225-55.069 33-123 33S57 374.225 57 356c0-3.486 2.015-6.846 5.749-10 15.788-13.337 62.313-23 117.251-23 44.447 0 83.388 6.325 105 15.803.51.224 1.01.449 1.5.676C296.993 344.338 303 349.981 303 356Z" fill="#F2D2A9"/><path d="M180 389.322c67.931 0 123-14.775 123-33 0-6.02-6.007-11.663-16.5-16.521a79.815 79.815 0 0 0-1.787-.801c-1.687 1.421 8.287 14.5-25.213 16-13 0-29 8-41 16.5s-32.31 6.339-46.5 3c-34-8-29.5-6.667-51-4-20.5 2.543-35.3 3.522-36.5-9.678-1.2-13.2-14.833-15.21-21.5-14.71-3.895 3.215-6 6.646-6 10.21 0 18.225 55.069 33 123 33Z" fill="#0498EC"/><path d="M84.5 360.822C83.3 347.622 69.415 345.5 62.749 346c15.788-13.337 62.313-23 117.251-23 44.447 0 83.101 6.522 104.713 16-1.687 1.421 8.287 14.5-25.213 16-13 0-29 8-41 16.5s-32.31 6.339-46.5 3c-34-8-29.5-6.667-51-4-20.5 2.543-35.3 3.522-36.5-9.678Z" fill="url(#a)" stroke="#E8EDEB"/><path d="m287.92 312.638-49.804-63.275H121.008l-50.485 63.286c-4.002 6.063.35 14.142 7.613 14.142h202.176c7.27 0 11.621-8.09 7.608-14.153Z" fill="#00A35C"/><path d="m258.374 240.21-40.554-57.056h-77.39l-40.801 57.073c-4.003 6.062.348 14.142 7.613 14.142h143.525c7.269 0 11.621-8.091 7.607-14.153v-.006Z" fill="#00A35C"/><path d="m234.462 173.995-51.595-77.938c-1.819-2.746-5.848-2.741-7.667.006l-51.423 77.943c-4.003 6.062.348 14.142 7.613 14.142h95.46c7.269 0 11.62-8.09 7.607-14.153h.005ZM164.413 311h30.179a7.412 7.412 0 0 1 7.408 7.408v18.991c0 10.266-8.335 18.601-18.601 18.601h-7.798C165.335 356 157 347.665 157 337.399v-18.991a7.412 7.412 0 0 1 7.408-7.408h.005Z" fill="#00A35C"/><path d="M128.441 315.441c1.203 10.062 5.36 31.81 13.658 39.206 8.247-2.384 15.224-7.763 19.675-14.882-5.443-20.294-21.558-27.698-28.934-28.863a7.693 7.693 0 0 1-4.399 4.539Z" fill="#0498EC"/><path d="M98 321.5c0 5.108 1.11 9.957 3.102 14.319 3.608-12.718 14.674-19.958 19.447-21.762a7.649 7.649 0 0 1-2.593-5.748c-3.044-3.383-12.328-2.097-17.83 1.24A34.435 34.435 0 0 0 98 321.5Z" fill="#FFC010"/><path d="M125.623 300.642a7.647 7.647 0 0 1 5.747 2.593c4.272-3.783 14.952-10.644 23.596-7.918A34.364 34.364 0 0 0 132.5 287c-.605 0-1.207.016-1.804.046l-.201.011c-6.464.443-5.988 9.344-4.872 13.585Z" fill="#DB3030"/><path d="M102.164 337.945C108.006 348.699 119.4 356 132.5 356c3.331 0 6.552-.472 9.599-1.353-8.298-7.396-12.455-29.144-13.658-39.206a7.644 7.644 0 0 1-2.818.534 7.638 7.638 0 0 1-5.074-1.918c-4.773 1.804-15.839 9.044-19.447 21.762a34.8 34.8 0 0 0 1.062 2.126ZM133.289 308.309c0 .91-.158 1.783-.449 2.593 7.376 1.165 23.491 8.569 28.934 28.863A34.34 34.34 0 0 0 167 321.5c0-10.473-4.667-19.856-12.034-26.183-8.644-2.726-19.324 4.135-23.596 7.918a7.634 7.634 0 0 1 1.919 5.074ZM117.956 308.309a7.667 7.667 0 0 1 7.667-7.667c-1.116-4.241-1.592-13.142 4.872-13.585a34.324 34.324 0 0 0-17.686 6.11 34.74 34.74 0 0 0-3.595 2.877 34.55 34.55 0 0 0-9.088 13.505c5.502-3.337 14.786-4.623 17.83-1.24Z" fill="#fff"/><path d="M125.623 300.642a7.667 7.667 0 1 0 0 15.334 7.667 7.667 0 0 0 0-15.334Z" fill="#DB3030"/><path d="M132.5 356c12.346 0 23.178-6.485 29.274-16.235M132.5 356c3.331 0 6.552-.472 9.599-1.353M132.5 356c-13.1 0-24.494-7.301-30.336-18.055M98 321.5c0 5.108 1.11 9.957 3.102 14.319M98 321.5c0-4.201.751-8.227 2.126-11.951M98 321.5c0-10.079 4.322-19.148 11.214-25.456M98 321.5a34.35 34.35 0 0 0 4.164 16.445M132.5 287c-.673 0-1.342.019-2.005.057M132.5 287c8.581 0 16.43 3.133 22.466 8.317M132.5 287c-.605 0-1.207.016-1.804.046m-12.74 21.263a7.667 7.667 0 0 1 7.667-7.667m-7.667 7.667a7.649 7.649 0 0 0 2.593 5.748m-2.593-5.748c-3.044-3.383-12.328-2.097-17.83 1.24m25.497-8.907a7.647 7.647 0 0 1 5.747 2.593m-5.747-2.593c-1.116-4.241-1.592-13.142 4.872-13.585m-9.946 27a7.638 7.638 0 0 0 5.074 1.918c.995 0 1.946-.189 2.818-.534m-7.892-1.384c-4.773 1.804-15.839 9.044-19.447 21.762m0 0a34.8 34.8 0 0 0 1.062 2.126m26.277-22.504c1.203 10.062 5.36 31.81 13.658 39.206m-13.658-39.206a7.693 7.693 0 0 0 4.399-4.539m9.259 43.745c8.247-2.384 15.224-7.763 19.675-14.882m-28.934-28.863c.291-.81.449-1.683.449-2.593a7.634 7.634 0 0 0-1.919-5.074m1.47 7.667c7.376 1.165 23.491 8.569 28.934 28.863m-30.404-36.53c4.272-3.783 14.952-10.644 23.596-7.918m.083.026-.083-.026m-24.27-8.271-.201.011m.201-.011-.201.011m-30.369 22.492a34.55 34.55 0 0 1 9.088-13.505m52.56 43.721A34.34 34.34 0 0 0 167 321.5c0-10.473-4.667-19.856-12.034-26.183m-24.471-8.26a34.324 34.324 0 0 0-17.686 6.11 34.74 34.74 0 0 0-3.595 2.877" stroke="#fff" stroke-width=".711"/><defs><radialGradient id="a" cx="0" cy="0" r="1" gradientUnits="userSpaceOnUse" gradientTransform="matrix(170.49967 -2.5 .61278 41.7918 182.5 355)"><stop offset=".174" stop-color="#fff" stop-opacity=".35"/><stop offset=".356" stop-color="#fff" stop-opacity=".35"/></radialGradient></defs></svg>
